<?xml version="1.0" standalone="no"?>
<!DOCTYPE svg PUBLIC "-//W3C//DTD SVG 20010904//EN"
 "http://www.w3.org/TR/2001/REC-SVG-20010904/DTD/svg10.dtd">
<svg version="1.0" xmlns="http://www.w3.org/2000/svg"
 width="837.000000pt" height="660.000000pt" viewBox="0 0 837.000000 660.000000"
 preserveAspectRatio="xMidYMid meet">

<g transform="translate(0.000000,660.000000) scale(0.100000,-0.100000)"
fill="#000000" stroke="none">
<path d="M0 3300 l0 -3300 4185 0 4185 0 0 3300 0 3300 -4185 0 -4185 0 0
-3300z m4585 1716 c200 -57 354 -186 441 -371 47 -99 64 -198 64 -365 l0 -140
-895 0 -895 0 0 163 c0 189 10 241 72 367 73 150 226 280 393 334 92 29 167
35 465 32 241 -3 306 -7 355 -20z m485 -1126 l0 -110 -880 0 -880 0 0 103 c0
57 3 107 7 110 3 4 399 7 880 7 l873 0 0 -110z m-2177 -378 l27 -28 0 -160 0
-160 -28 -27 c-28 -27 -31 -28 -143 -25 l-114 3 -3 213 -2 212 118 0 c117 0
119 0 145 -28z m377 -187 l0 -215 -40 0 -40 0 0 90 0 90 -60 0 -59 0 -3 -87
-3 -88 -37 -3 -38 -3 0 215 0 216 140 0 140 0 0 -215z m148 3 l-3 -213 -37 -3
-38 -3 0 215 0 216 40 0 40 0 -2 -212z m150 30 l2 -178 100 0 100 0 0 -35 0
-35 -140 0 -140 0 0 216 0 215 38 -3 37 -3 3 -177z m361 125 l29 -58 28 58
c28 56 29 57 71 57 l42 0 -25 -56 c-14 -31 -35 -75 -47 -98 -17 -33 -23 -64
-27 -156 l-5 -115 -37 -3 -38 -3 0 101 c0 99 -1 102 -50 210 -27 60 -50 112
-50 115 0 3 18 5 40 5 38 0 41 -2 69 -57z m526 -80 c21 -76 41 -141 45 -146 3
-4 24 57 46 135 l41 143 61 3 62 3 0 -216 0 -216 -37 3 -38 3 -5 140 -5 140
-41 -140 -41 -140 -41 -3 -41 -3 -17 58 c-9 32 -28 96 -42 143 l-27 85 -3
-142 -3 -143 -39 0 -40 0 0 215 0 215 63 0 63 0 39 -137z m613 100 l3 -32
-103 -3 -103 -3 -3 -52 -3 -52 68 -3 68 -3 3 -32 3 -32 -68 -3 -68 -3 0 -50 0
-50 103 -3 103 -3 -3 -32 -3 -32 -140 0 -140 0 -3 213 -2 213 142 -3 143 -3 3
-32z m347 -178 l0 -210 -37 -3 -37 -3 -3 88 -3 88 -60 0 -60 0 -3 -88 -3 -88
-37 3 -37 3 -3 200 c-1 110 0 205 3 213 3 10 36 12 142 10 l138 -3 0 -210z
m147 38 l3 -178 103 -3 103 -3 -3 -32 -3 -32 -140 0 -140 0 -3 213 -2 212 40
0 40 0 2 -177z m-472 -1014 c0 -162 -15 -253 -55 -346 -68 -152 -206 -288
-356 -349 -116 -47 -179 -54 -492 -54 -256 0 -302 3 -374 20 -198 47 -358 174
-448 355 -52 106 -65 176 -65 363 l0 162 895 0 895 0 0 -151z"/>
<path d="M3843 4925 c-107 -23 -189 -71 -278 -160 -127 -127 -179 -260 -173
-444 l3 -86 800 0 800 0 -2 103 c-2 127 -14 185 -61 282 -72 149 -229 270
-394 306 -88 19 -607 18 -695 -1z m42 -90 c50 -49 17 -145 -50 -147 -48 -1
-74 11 -91 44 -46 88 71 174 141 103z m370 0 c55 -54 18 -147 -58 -147 -48 0
-74 16 -86 55 -30 90 78 159 144 92z m346 12 c46 -35 48 -114 4 -143 -39 -26
-95 -21 -122 11 -51 59 -13 145 64 145 21 0 45 -6 54 -13z"/>
<path d="M2715 3457 c-3 -7 -4 -71 -3 -143 l3 -129 60 0 60 0 0 140 0 140 -58
3 c-41 2 -59 -1 -62 -11z"/>
<path d="M3070 3415 l0 -55 60 0 60 0 0 55 0 55 -60 0 -60 0 0 -55z"/>
<path d="M5217 3464 c-4 -4 -7 -29 -7 -56 l0 -48 66 0 65 0 -3 53 -3 52 -55 3
c-31 2 -59 0 -63 -4z"/>
<path d="M3390 2313 c1 -188 56 -330 174 -448 77 -76 161 -124 261 -150 86
-22 655 -22 739 0 192 50 354 210 410 405 9 32 17 102 18 165 l3 110 -802 3
-803 2 0 -87z"/>
</g>
</svg>
